<svg xmlns="http://www.w3.org/2000/svg" version="1.1" xmlns:xlink="http://www.w3.org/1999/xlink" width="512" height="512" x="0" y="0" viewBox="0 0 512 512" style="enable-background:new 0 0 512 512" xml:space="preserve" class=""><g><path d="M496 222.888h-43.008A16.004 16.004 0 0 0 437.6 234.52l-9.376 33.008L390.256 146.6a15.964 15.964 0 0 0-14.192-11.168c-6.624-.368-12.768 3.2-15.568 9.168L297.04 279.976 259.088 209c-2.976-5.552-8.784-8.736-15.264-8.416a15.998 15.998 0 0 0-13.888 10.528L176.88 358.264 119.648 92.456A15.99 15.99 0 0 0 105.28 79.88c-6.944-.64-13.616 3.536-16.192 10.112L37.072 222.888H16c-8.848 0-16 7.168-16 16s7.152 16 16 16h32a16.033 16.033 0 0 0 14.912-10.176l36.64-93.616L157.36 419.56a16.01 16.01 0 0 0 14.56 12.592c.368.016.736.032 1.072.032 6.704 0 12.752-4.192 15.04-10.576l59.792-165.84 36.048 67.408c2.848 5.328 8.752 8.752 14.528 8.448 6.048-.16 11.504-3.712 14.064-9.2l59.568-127.072 41.68 132.784a15.973 15.973 0 0 0 15.488 11.2c7.072-.096 13.232-4.832 15.168-11.632l20.72-72.816H496c8.848 0 16-7.168 16-16s-7.152-16-16-16z" fill="#2ca2fc" opacity="1" data-original="#000000" class=""></path></g></svg>