<svg xmlns="http://www.w3.org/2000/svg" version="1.1" xmlns:xlink="http://www.w3.org/1999/xlink" width="512" height="512" x="0" y="0" viewBox="0 0 682.667 682.667" style="enable-background:new 0 0 512 512" xml:space="preserve" class=""><g><defs><clipPath id="a" clipPathUnits="userSpaceOnUse"><path d="M0 512h512V0H0Z" fill="#2ca2fc" opacity="1" data-original="#000000"></path></clipPath></defs><g clip-path="url(#a)" transform="matrix(1.33333 0 0 -1.33333 0 682.667)"><path d="M0 0c44.092 39.928 102.579 64.249 166.748 64.249 137.243 0 248.5-111.257 248.5-248.5s-111.257-248.5-248.5-248.5-248.5 111.257-248.5 248.5c0 60.463 21.594 115.883 57.49 158.968" style="stroke-width:15;stroke-linecap:round;stroke-linejoin:round;stroke-miterlimit:10;stroke-dasharray:none;stroke-opacity:1" transform="translate(89.252 440.251)" fill="none" stroke="#2ca2fc" stroke-width="15" stroke-linecap="round" stroke-linejoin="round" stroke-miterlimit="10" stroke-dasharray="none" stroke-opacity="" data-original="#000000" opacity="1" class=""></path><path d="M0 0c-.8-47.6-17.601-93.98-47.513-130.97-30.199-37.343-72.491-63.719-119.086-74.269-12.777-2.893-25.481 5.12-28.375 17.898-2.894 12.779 5.12 25.482 17.899 28.375 36.237 8.205 69.149 28.743 92.672 57.829C-60.205-71.213-47.415-35.01-47.415 3.561c0 91.885-74.753 166.639-166.639 166.639-91.885 0-166.639-74.754-166.639-166.639 0-38.64 12.832-74.895 37.108-104.845 23.601-29.117 56.606-49.633 92.933-57.768 12.784-2.863 20.831-15.553 17.965-28.333-2.863-12.784-15.548-20.828-28.333-17.965-46.709 10.46-89.122 36.809-119.422 74.191-30.757 37.945-47.696 85.789-47.696 134.72 0 57.183 22.269 110.945 62.703 151.38 40.436 40.435 94.198 62.704 151.381 62.704 57.184 0 110.945-22.269 151.38-62.704C-29.566 121.834-8.638 79.793-2.14 34.254" style="stroke-width:15;stroke-linecap:round;stroke-linejoin:round;stroke-miterlimit:10;stroke-dasharray:none;stroke-opacity:1" transform="translate(467.633 250.142)" fill="none" stroke="#2ca2fc" stroke-width="15" stroke-linecap="round" stroke-linejoin="round" stroke-miterlimit="10" stroke-dasharray="none" stroke-opacity="" data-original="#000000" opacity="1" class=""></path><path d="m0 0-31.829-75.842" style="stroke-width:15;stroke-linecap:round;stroke-linejoin:round;stroke-miterlimit:10;stroke-dasharray:none;stroke-opacity:1" transform="translate(362.32 293.14)" fill="none" stroke="#2ca2fc" stroke-width="15" stroke-linecap="round" stroke-linejoin="round" stroke-miterlimit="10" stroke-dasharray="none" stroke-opacity="" data-original="#000000" opacity="1" class=""></path><path d="M0 0c0-12.577-10.196-22.773-22.774-22.773-12.578 0-22.774 10.196-22.774 22.773v36.422c0 12.578 10.196 22.774 22.774 22.774C-10.196 59.196 0 49 0 36.422Z" style="stroke-width:15;stroke-linecap:round;stroke-linejoin:round;stroke-miterlimit:10;stroke-dasharray:none;stroke-opacity:1" transform="translate(292.773 234.282)" fill="none" stroke="#2ca2fc" stroke-width="15" stroke-linecap="round" stroke-linejoin="round" stroke-miterlimit="10" stroke-dasharray="none" stroke-opacity="" data-original="#000000" opacity="1" class=""></path><path d="M0 0c0-12.577-10.196-22.773-22.773-22.773-12.579 0-22.775 10.196-22.775 22.773v36.422c0 12.578 10.196 22.774 22.775 22.774C-10.196 59.196 0 49 0 36.422Z" style="stroke-width:15;stroke-linecap:round;stroke-linejoin:round;stroke-miterlimit:10;stroke-dasharray:none;stroke-opacity:1" transform="translate(223.094 234.282)" fill="none" stroke="#2ca2fc" stroke-width="15" stroke-linecap="round" stroke-linejoin="round" stroke-miterlimit="10" stroke-dasharray="none" stroke-opacity="" data-original="#000000" opacity="1" class=""></path><path d="M0 0h17.056v-79.798" style="stroke-width:15;stroke-linecap:round;stroke-linejoin:round;stroke-miterlimit:10;stroke-dasharray:none;stroke-opacity:1" transform="translate(135.772 291.767)" fill="none" stroke="#2ca2fc" stroke-width="15" stroke-linecap="round" stroke-linejoin="round" stroke-miterlimit="10" stroke-dasharray="none" stroke-opacity="" data-original="#000000" opacity="1" class=""></path><path d="M0 0a8.724 8.724 0 0 0-8.725-8.724A8.725 8.725 0 1 0 0 0" style="fill-opacity:1;fill-rule:nonzero;stroke:none" transform="translate(333.784 291.767)" fill="#2ca2fc" data-original="#000000" opacity="1"></path><path d="M0 0a8.725 8.725 0 1 0-17.45 0A8.725 8.725 0 0 0 0 0" style="fill-opacity:1;fill-rule:nonzero;stroke:none" transform="translate(376.228 220.534)" fill="#2ca2fc" data-original="#000000" opacity="1"></path></g></g></svg>