<svg xmlns="http://www.w3.org/2000/svg" version="1.1" xmlns:xlink="http://www.w3.org/1999/xlink" width="512" height="512" x="0" y="0" viewBox="0 0 512 512" style="enable-background:new 0 0 512 512" xml:space="preserve" class=""><g><path d="M375.626 185.497h46.8l-37.396 85.071M287.939 245.46h-53.421s28.284-51.268 32.952-56.995c4.72-5.791 9.189-2.179 9.615 2.929.426 5.108-.213 79.174-.213 79.174M220.685 271.204s-41.39.52-43.351-.133c-1.96-.654 3.143-4.106 30.28-42.879 5.068-7.241 7.858-13.35 9.044-18.468l.421-3.291c0-12.022-9.746-21.768-21.768-21.768-10.579 0-19.395 7.546-21.359 17.549M346.505 185.497 312.339 271.4" style="stroke-width:15;stroke-linecap:round;stroke-linejoin:round;stroke-miterlimit:10;" fill="none" stroke="#2ca2fc" stroke-width="15" stroke-linecap="round" stroke-linejoin="round" stroke-miterlimit="10" data-original="#000000" opacity="1"></path><path d="M24.357 278.919c-11.6-26.095-18.828-53.577-16.382-79.428.609-6.43 3.586-12.406 8.153-16.972l37.681-37.681c10.782-10.782 28.622-9.484 37.729 2.746l42.562 56.579a15 15 0 0 1-1.556 19.796l-27.57 26.681a10 10 0 0 0-1.537 12.468v.001a453.165 453.165 0 0 0 145.456 145.456v0a10.002 10.002 0 0 0 12.468-1.537l26.68-27.57a15.002 15.002 0 0 1 19.797-1.556l56.579 42.562c12.23 9.107 13.528 26.947 2.746 37.729l-37.681 37.681a28.478 28.478 0 0 1-17.645 8.215c-90.809 7.997-201.365-102.558-201.365-102.558s-40.213-40.213-70.38-92.055" style="stroke-width:15;stroke-linecap:round;stroke-linejoin:round;stroke-miterlimit:10;" fill="none" stroke="#2ca2fc" stroke-width="15" stroke-linecap="round" stroke-linejoin="round" stroke-miterlimit="10" data-original="#000000" opacity="1"></path><path d="M159.287 88.7c73.41-65.806 186.33-63.431 256.887 7.126 73.016 73.016 73.016 191.397 0 264.413-20.353 20.353-44.23 35.032-69.668 44.038M107.499 166.128a185.676 185.676 0 0 1 29.404-53.577" style="stroke-width:15;stroke-linecap:round;stroke-linejoin:round;stroke-miterlimit:10;" fill="none" stroke="#2ca2fc" stroke-width="15" stroke-linecap="round" stroke-linejoin="round" stroke-miterlimit="10" data-original="#000000" opacity="1"></path><path d="M449.933 82.796c75.957 86.626 72.615 218.536-10.026 301.176-19.571 19.571-41.906 34.695-65.748 45.371M82.803 137.514c10.668-23.719 25.743-45.94 45.225-65.422 81.695-81.695 211.54-85.896 298.187-12.601" style="stroke-width:15;stroke-linecap:round;stroke-linejoin:round;stroke-miterlimit:10;" fill="none" stroke="#2ca2fc" stroke-width="15" stroke-linecap="round" stroke-linejoin="round" stroke-miterlimit="10" data-original="#000000" opacity="1"></path></g></svg>