<svg xmlns="http://www.w3.org/2000/svg" version="1.1" xmlns:xlink="http://www.w3.org/1999/xlink" width="512" height="512" x="0" y="0" viewBox="0 0 512 512" style="enable-background:new 0 0 512 512" xml:space="preserve" class=""><g><path d="M230.4 200.533H76.8c-9.422.009-17.057 7.645-17.067 17.067H51.2c-9.422.009-17.057 7.645-17.067 17.067v17.067c.009 9.422 7.645 17.057 17.067 17.067h8.533V320H51.2c-9.422.009-17.057 7.645-17.067 17.067v17.067c.009 9.422 7.645 17.057 17.067 17.067h8.533c.009 9.422 7.645 17.057 17.067 17.067h153.6c9.422-.009 17.057-7.645 17.067-17.067V217.6c-.01-9.422-7.645-17.057-17.067-17.067zm-170.667 153.6H51.2v-17.067h8.533v17.067zm0-102.4H51.2v-17.067h8.533v17.067zM76.8 371.2V217.6h153.6l.012 153.6H76.8z" fill="#2ca2fc" opacity="1" data-original="#000000"></path><path d="M136.533 311.467H102.4c-4.713 0-8.533 3.82-8.533 8.533s3.82 8.533 8.533 8.533h34.133c4.713 0 8.533-3.82 8.533-8.533s-3.82-8.533-8.533-8.533zM136.533 337.067H102.4a8.533 8.533 0 0 0 0 17.066h34.133a8.533 8.533 0 0 0 8.533-8.533 8.532 8.532 0 0 0-8.533-8.533zM204.8 277.333a8.533 8.533 0 0 0-8.533 8.533v17.067c0 4.713 3.82 8.533 8.533 8.533s8.533-3.82 8.533-8.533v-17.067a8.533 8.533 0 0 0-8.533-8.533zM409.6 183.467h-128c-9.422.009-17.057 7.645-17.067 17.067V268.8c.009 9.422 7.645 17.057 17.067 17.067h128c9.422-.009 17.057-7.645 17.067-17.067v-68.267c-.01-9.421-7.645-17.057-17.067-17.066zm-128 85.333v-68.267h128l.012 68.267H281.6zM409.6 302.933h-128c-9.422.009-17.057 7.645-17.067 17.067v68.267c.009 9.422 7.645 17.057 17.067 17.067h128c9.422-.009 17.057-7.645 17.067-17.067V320c-.01-9.422-7.645-17.057-17.067-17.067zm-128 85.334V320h128l.012 68.267H281.6z" fill="#2ca2fc" opacity="1" data-original="#000000"></path><path d="M358.4 337.067h-25.6a8.533 8.533 0 0 0 0 17.066h25.6a8.533 8.533 0 0 0 0-17.066z" fill="#2ca2fc" opacity="1" data-original="#000000"></path><path d="M503.467 465.067h-59.733v-25.6c9.422-.009 17.057-7.645 17.067-17.067V132.267h25.6a8.532 8.532 0 0 0 8.367-6.858l17.067-85.333a8.534 8.534 0 0 0-8.366-10.208h-59.733c-42.395.049-76.751 34.405-76.8 76.8v42.667H281.6v-17.067c-.037-32.974-26.759-59.696-59.733-59.733h-8.533a8.533 8.533 0 0 0-8.533-8.533H102.4a8.533 8.533 0 0 0-8.533 8.533H8.533A8.53 8.53 0 0 0 0 81.067V115.2a8.533 8.533 0 0 0 8.533 8.533h25.6v25.6H17.067C7.645 149.343.009 156.978 0 166.4v256c.009 9.422 7.645 17.057 17.067 17.067v25.6H8.533A8.533 8.533 0 0 0 0 473.6a8.533 8.533 0 0 0 8.533 8.533h494.933a8.533 8.533 0 0 0 8.533-8.533 8.531 8.531 0 0 0-8.532-8.533zM460.8 46.933h32.258L479.404 115.2H460.8V46.933zM384 106.667c.037-32.974 26.759-59.696 59.733-59.733V115.2H384v-8.533zm0 25.6h59.733v17.067H384v-17.067zM213.333 89.6h8.533c23.553.028 42.639 19.114 42.667 42.667v17.067h-51.2V89.6zm-102.4-8.533h85.333V115.2h-85.333V81.067zm-8.533 51.2h93.867v17.067H51.2v-25.6h42.667a8.533 8.533 0 0 0 8.533 8.533zm-85.333-25.6V89.6h76.8v17.067h-76.8zm0 59.733h426.667l.013 256H17.067v-256zm409.6 298.667H34.133v-25.6h392.533v25.6z" fill="#2ca2fc" opacity="1" data-original="#000000"></path></g></svg>