<svg xmlns="http://www.w3.org/2000/svg" version="1.1" xmlns:xlink="http://www.w3.org/1999/xlink" width="512" height="512" x="0" y="0" viewBox="0 0 496 496" style="enable-background:new 0 0 512 512" xml:space="preserve" class=""><g><path d="M256 352c-17.648 0-32 14.352-32 32s14.352 32 32 32 32-14.352 32-32-14.352-32-32-32zm0 48c-8.824 0-16-7.176-16-16s7.176-16 16-16 16 7.176 16 16-7.176 16-16 16z" fill="#2ca2fc" opacity="1" data-original="#000000"></path><path d="M368 320c-24.08 0-45.08 13.384-56 33.088C301.08 333.384 280.08 320 256 320c-35.288 0-64 28.712-64 64s28.712 64 64 64c24.08 0 45.08-13.384 56-33.088C322.92 434.616 343.92 448 368 448c35.288 0 64-28.712 64-64s-28.712-64-64-64zM256 432c-26.472 0-48-21.528-48-48s21.528-48 48-48 48 21.528 48 48-21.528 48-48 48zm112 0c-26.472 0-48-21.528-48-48s21.528-48 48-48 48 21.528 48 48-21.528 48-48 48z" fill="#2ca2fc" opacity="1" data-original="#000000"></path><path d="M368 352c-17.648 0-32 14.352-32 32s14.352 32 32 32 32-14.352 32-32-14.352-32-32-32zm0 48c-8.824 0-16-7.176-16-16s7.176-16 16-16 16 7.176 16 16-7.176 16-16 16z" fill="#2ca2fc" opacity="1" data-original="#000000"></path><path d="M496 96V48H24v48h24v160H16v40H0v56h32v16h16v72h48v-72h75.312l64-64h153.376l40 40H496v-48h-24V96h24zM32 272h16v24H32v-24zm0 48v16H16v-24h32v8H32zm48 104H64v-56h16v56zm400-112v16h-44.688l-40-40H228.688l-64 64H48v-16h107.312l64-64h185.376l40 40H480zm-72-144v88h-48V112h-16v144h-48V112h-16v144h-48V112h-16v144h-3.312l-64 64H64V96h392v200h-4.688L424 268.688V168h-16zM40 80V64h440v16H40z" fill="#2ca2fc" opacity="1" data-original="#000000"></path><path d="M88 256h16v40H88zM88 112h16v128H88zM152 112h16v184h-16zM408 112h16v40h-16z" fill="#2ca2fc" opacity="1" data-original="#000000"></path></g></svg>