<svg xmlns="http://www.w3.org/2000/svg" version="1.1" xmlns:xlink="http://www.w3.org/1999/xlink" width="512" height="512" x="0" y="0" viewBox="0 0 160 160" style="enable-background:new 0 0 512 512" xml:space="preserve" class=""><g><path d="M80.97 113.341a3.498 3.498 0 0 0-2.64 3.39v11H61.27v-11.11c0-1.59-1.07-2.98-2.61-3.38a44.58 44.58 0 0 1-11.59-4.88 3.496 3.496 0 0 0-4.27.53l-7.91 7.91-12.06-12.06 8.02-8.02a3.51 3.51 0 0 0 .55-4.24 44.218 44.218 0 0 1-4.7-11.48 3.508 3.508 0 0 0-3.4-2.65H11.9v-17.05h11.5c1.59 0 2.99-1.08 3.39-2.62 1.04-3.96 2.63-7.78 4.74-11.35.81-1.38.59-3.13-.54-4.26l-8.16-8.16 12.06-12.06 8.16 8.16a3.496 3.496 0 0 0 4.25.54c3.57-2.11 7.39-3.71 11.36-4.75 1.54-.4 2.61-1.79 2.61-3.38v-11.5h17.06v11.39c0 1.6 1.09 3 2.64 3.39 4.02 1.02 7.88 2.6 11.5 4.71 1.37.8 3.11.57 4.24-.55l8.01-8.01 12.06 12.06-7.9 7.9a3.496 3.496 0 0 0-.53 4.28c2.17 3.62 3.81 7.53 4.88 11.59.4 1.54 1.79 2.62 3.38 2.62h11.1v17.05h-11c-1.6 0-3 1.09-3.39 2.65-.7 2.79-1.68 5.5-2.93 8.11l5.22 5.22c1.53-2.87 2.79-5.88 3.75-8.98h11.85c1.93 0 3.5-1.56 3.5-3.5v-24.05c0-1.94-1.57-3.5-3.5-3.5h-11.97c-.92-2.9-2.11-5.72-3.54-8.42l8.5-8.49a3.495 3.495 0 0 0 0-4.95l-17.01-17.01a3.495 3.495 0 0 0-4.95 0l-8.63 8.62c-2.66-1.37-5.43-2.5-8.28-3.39V8.421c0-1.93-1.57-3.5-3.5-3.5H57.77c-1.93 0-3.5 1.57-3.5 3.5v12.37c-2.8.9-5.52 2.03-8.14 3.4l-8.77-8.76c-1.31-1.32-3.63-1.32-4.95 0L15.4 32.441a3.513 3.513 0 0 0 0 4.95l8.77 8.77a52.62 52.62 0 0 0-3.4 8.14H8.4c-1.94 0-3.5 1.56-3.5 3.5v24.05c0 1.94 1.56 3.5 3.5 3.5h12.25a52.17 52.17 0 0 0 3.39 8.28l-8.64 8.63a3.513 3.513 0 0 0 0 4.95l17.01 17.01a3.495 3.495 0 0 0 4.95 0l8.51-8.5a52.39 52.39 0 0 0 8.4 3.53v11.98c0 1.93 1.57 3.5 3.5 3.5h24.06c1.93 0 3.5-1.57 3.5-3.5v-11.85c3.11-.96 6.13-2.23 9.01-3.78l-5.21-5.21a43.949 43.949 0 0 1-8.16 2.95z" fill="#2ca2fc" opacity="1" data-original="#000000"></path><path d="M148.584 117.123c-5.193-5.193-12.667-7.468-19.84-6.124l-17.067-17.067-2.477-2.481-.002.003-7.619-7.619a34.522 34.522 0 0 0 2.961-14.009c0-19.154-15.583-34.738-34.737-34.738-19.155 0-34.738 15.583-34.738 34.738s15.583 34.738 34.738 34.738c5.001 0 9.753-1.07 14.053-2.981l10.671 10.671 2.053 2.057.002-.002 14.426 14.426c-1.344 7.168.932 14.646 6.123 19.84h.001c4.337 4.337 10.033 6.505 15.73 6.505 5.693 0 11.387-2.166 15.721-6.5 4.202-4.201 6.516-9.787 6.516-15.729s-2.314-11.527-6.515-15.728zm-26.502 26.502a15.3 15.3 0 0 1-3.955-14.659c.032-.124.059-.249.077-.375a3.497 3.497 0 0 0-.888-3.447L77.462 85.289a3.497 3.497 0 0 0-3.446-.888 15.246 15.246 0 0 1-15.015-3.858 15.244 15.244 0 0 1-4.329-8.851l6.546 6.545a3.5 3.5 0 0 0 3.38.906l9.526-2.55a3.502 3.502 0 0 0 2.476-2.477l2.549-9.525a3.5 3.5 0 0 0-.906-3.38l-6.556-6.556a15.277 15.277 0 0 1 8.867 4.335 15.257 15.257 0 0 1 3.856 15.017 3.497 3.497 0 0 0 .889 3.444l39.854 39.854a3.53 3.53 0 0 0 3.447.888c.126-.019.251-.045.375-.077 5.228-1.374 10.844.141 14.659 3.955a15.144 15.144 0 0 1 4.465 10.778c0 4.072-1.586 7.899-4.465 10.779-5.941 5.942-15.609 5.939-21.552-.003zM69.803 97.564c-15.295 0-27.738-12.443-27.738-27.738s12.443-27.738 27.738-27.738c15.294 0 27.737 12.443 27.737 27.738 0 3.001-.485 5.889-1.371 8.598l-4.542-4.542a22.248 22.248 0 0 0-6.124-19.841c-5.577-5.577-13.789-7.79-21.364-5.789-.386.095-.764.208-1.136.328a3.5 3.5 0 0 0-2.297 4.26l.034.124c.161.584.471 1.117.899 1.545l10.225 10.225-1.504 5.622-5.621 1.504-10.225-10.226a3.507 3.507 0 0 0-1.364-.844l-.12-.04a3.502 3.502 0 0 0-4.443 2.248c-.119.37-.23.745-.31 1.07-2.018 7.635.194 15.844 5.774 21.423a22.241 22.241 0 0 0 19.84 6.126l4.558 4.558a27.579 27.579 0 0 1-8.646 1.389z" fill="#2ca2fc" opacity="1" data-original="#000000"></path><path d="M125.618 125.609c-3.848 3.848-3.848 10.109 0 13.958 1.924 1.925 4.451 2.887 6.979 2.887s5.056-.963 6.979-2.887c3.848-3.849 3.848-10.11 0-13.958-3.849-3.849-10.111-3.848-13.958 0zm10.423 10.423a4.878 4.878 0 0 1-6.888 0 4.878 4.878 0 0 1 0-6.888 4.878 4.878 0 0 1 6.888 0 4.878 4.878 0 0 1 0 6.888z" fill="#2ca2fc" opacity="1" data-original="#000000"></path></g></svg>